<svg xmlns="http://www.w3.org/2000/svg" xmlns:xlink="http://www.w3.org/1999/xlink" width="500" zoomAndPan="magnify" viewBox="0 0 375 374.999991" height="500" preserveAspectRatio="xMidYMid meet" version="1.0"><defs><g/><clipPath id="id1"><path d="M 141 94.429688 L 234 94.429688 L 234 217.429688 L 141 217.429688 Z M 141 94.429688 " clip-rule="nonzero"/></clipPath><clipPath id="id2"><path d="M 129 145 L 204 145 L 204 225 L 129 225 Z M 129 145 " clip-rule="nonzero"/></clipPath><clipPath id="id3"><path d="M 128.101562 146.359375 L 203.835938 144.816406 L 205.457031 224.296875 L 129.722656 225.839844 Z M 128.101562 146.359375 " clip-rule="nonzero"/></clipPath><clipPath id="id4"><path d="M 203.964844 144.8125 L 128.230469 146.355469 L 129.851562 225.839844 L 205.585938 224.296875 Z M 203.964844 144.8125 " clip-rule="nonzero"/></clipPath></defs><rect x="-37.5" width="450" fill="rgb(100%, 100%, 100%)" y="-37.499999" height="449.999989" fill-opacity="1"/><rect x="-37.5" width="450" fill="rgb(100%, 100%, 100%)" y="-37.499999" height="449.999989" fill-opacity="1"/><rect x="-37.5" width="450" fill="rgb(100%, 100%, 100%)" y="-37.499999" height="449.999989" fill-opacity="1"/><rect x="-37.5" width="450" fill="rgb(100%, 100%, 100%)" y="-37.499999" height="449.999989" fill-opacity="1"/><g clip-path="url(#id1)"><path fill="rgb(94.898987%, 62.748718%, 2.749634%)" d="M 141.367188 215.28125 L 141.367188 106.648438 C 141.367188 105.457031 142.097656 103.789062 142.945312 102.917969 L 149.851562 96.007812 C 150.722656 95.140625 152.414062 94.429688 153.625 94.429688 L 231.394531 94.429688 C 232.605469 94.429688 233.589844 95.414062 233.589844 96.582031 L 233.589844 205.214844 C 233.589844 206.402344 232.855469 208.074219 232.011719 208.941406 L 225.101562 215.851562 C 224.234375 216.722656 222.542969 217.429688 221.328125 217.429688 L 143.5625 217.429688 C 142.351562 217.429688 141.367188 216.445312 141.367188 215.28125 Z M 224.804688 105.4375 L 224.804688 209.925781 L 229.195312 205.535156 L 229.195312 98.824219 L 153.261719 98.824219 L 148.867188 103.214844 L 222.609375 103.214844 C 223.820312 103.214844 224.804688 104.199219 224.804688 105.4375 Z M 224.804688 105.4375 " fill-opacity="1" fill-rule="evenodd"/></g><g clip-path="url(#id2)"><g clip-path="url(#id3)"><g clip-path="url(#id4)"><path fill="rgb(100%, 100%, 100%)" d="M 132.832031 176.675781 L 194.484375 146.257812 C 197.035156 144.996094 199.773438 145.054688 201.785156 146.378906 C 203.496094 148.078125 204.113281 150.742188 203.394531 153.492188 L 186.09375 219.941406 C 185.695312 221.453125 184.792969 222.714844 183.480469 223.585938 C 181.644531 224.789062 179.636719 224.835938 178.242188 223.703125 C 177.96875 223.476562 177.714844 223.207031 177.496094 222.894531 L 171.605469 211.371094 C 171.585938 211.328125 171.566406 211.277344 171.542969 211.234375 L 168.078125 204.460938 L 168.078125 204.453125 L 168.074219 204.445312 C 168.070312 204.4375 168.066406 204.4375 168.066406 204.429688 L 168.042969 204.382812 C 168.019531 204.335938 167.980469 204.265625 167.933594 204.175781 L 167.855469 204.019531 L 167.847656 204.027344 C 167.691406 203.742188 167.445312 203.332031 167.097656 202.820312 C 162.910156 207.945312 158.734375 213.089844 154.527344 218.199219 C 151.757812 221.5625 147.191406 222.488281 143.554688 220.480469 C 138.660156 217.78125 137.367188 211.652344 140.875 207.269531 C 145.011719 202.097656 149.234375 196.984375 153.496094 191.769531 C 152.917969 191.53125 152.460938 191.371094 152.152344 191.273438 L 152.15625 191.265625 L 151.988281 191.222656 C 151.886719 191.191406 151.8125 191.171875 151.757812 191.15625 L 151.710938 191.144531 C 151.703125 191.140625 151.699219 191.140625 151.695312 191.140625 L 151.679688 191.136719 L 144.328125 189.128906 C 144.28125 189.117188 144.230469 189.105469 144.179688 189.09375 L 131.683594 185.683594 C 131.332031 185.53125 131.011719 185.335938 130.734375 185.113281 C 129.347656 183.980469 128.984375 182.011719 129.789062 179.972656 C 130.375 178.511719 131.425781 177.375 132.832031 176.675781 " fill-opacity="1" fill-rule="nonzero"/></g></g></g><g fill="rgb(0%, 0%, 0%)" fill-opacity="1"><g transform="translate(73.568067, 257.234993)"><g><path d="M 9.125 0.300781 C 13.316406 0.300781 16.867188 -2.167969 16.867188 -6.359375 C 16.867188 -14.660156 6.546875 -12.605469 6.546875 -16.492188 C 6.546875 -17.765625 7.515625 -18.363281 8.714844 -18.363281 C 9.984375 -18.363281 11.257812 -17.652344 12.378906 -16.417969 L 15.671875 -19.558594 C 14.023438 -21.46875 11.519531 -22.738281 8.75 -22.738281 C 5.199219 -22.738281 1.570312 -20.609375 1.570312 -16.121094 C 1.570312 -8.488281 11.929688 -10.324219 11.929688 -6.394531 C 11.929688 -5.160156 10.882812 -4.339844 9.164062 -4.339844 C 7.105469 -4.339844 5.496094 -5.496094 4.675781 -7.253906 L 0.597656 -4.710938 C 2.058594 -1.90625 5.199219 0.300781 9.125 0.300781 Z M 9.125 0.300781 "/></g></g></g><g fill="rgb(0%, 0%, 0%)" fill-opacity="1"><g transform="translate(93.657625, 257.234993)"><g><path d="M 21.765625 -22.441406 L 14.625 -6.917969 L 7.554688 -22.441406 L 2.207031 -22.441406 L 2.207031 0 L 7.144531 0 L 7.144531 -13.390625 L 13.203125 0 L 16.042969 0 L 22.140625 -13.351562 L 22.140625 0 L 27.078125 0 L 27.078125 -22.441406 Z M 21.765625 -22.441406 "/></g></g></g><g fill="rgb(0%, 0%, 0%)" fill-opacity="1"><g transform="translate(125.302351, 257.234993)"><g><path d="M 15.933594 0 L 21.207031 0 L 13.128906 -22.441406 L 7.59375 -22.441406 L -0.484375 0 L 4.789062 0 L 6.171875 -4.226562 L 14.546875 -4.226562 Z M 7.480469 -8.339844 L 10.359375 -17.242188 L 13.238281 -8.339844 Z M 7.480469 -8.339844 "/></g></g></g><g fill="rgb(0%, 0%, 0%)" fill-opacity="1"><g transform="translate(148.383537, 257.234993)"><g><path d="M 13.914062 -9.238281 C 16.566406 -10.023438 18.4375 -12.492188 18.4375 -15.558594 C 18.4375 -19.375 15.597656 -22.441406 11.742188 -22.441406 L 2.207031 -22.441406 L 2.207031 0 L 7.144531 0 L 7.144531 -8.675781 L 9.125 -8.675781 L 14.660156 0 L 20.195312 0 Z M 10.996094 -12.753906 L 7.144531 -12.753906 L 7.144531 -18.0625 L 10.996094 -18.0625 C 12.566406 -18.0625 13.726562 -16.941406 13.726562 -15.410156 C 13.726562 -13.839844 12.566406 -12.753906 10.996094 -12.753906 Z M 10.996094 -12.753906 "/></g></g></g><g fill="rgb(0%, 0%, 0%)" fill-opacity="1"><g transform="translate(170.754213, 257.234993)"><g><path d="M 16.042969 -22.441406 L -0.1875 -22.441406 L -0.1875 -18.0625 L 5.496094 -18.0625 L 5.496094 0 L 10.398438 0 L 10.398438 -18.0625 L 16.042969 -18.0625 Z M 16.042969 -22.441406 "/></g></g></g><g fill="rgb(0%, 0%, 0%)" fill-opacity="1"><g transform="translate(188.974018, 257.234993)"><g/></g></g><g fill="rgb(0%, 0%, 0%)" fill-opacity="1"><g transform="translate(200.313076, 257.234993)"><g><path d="M 15.707031 -11.371094 C 17.390625 -12.265625 18.476562 -13.839844 18.476562 -16.195312 C 18.476562 -20.160156 15.484375 -22.441406 11.707031 -22.441406 L 2.207031 -22.441406 L 2.207031 0 L 12.566406 0 C 16.304688 0 19.222656 -2.167969 19.222656 -6.132812 C 19.222656 -8.863281 17.800781 -10.546875 15.707031 -11.371094 Z M 13.539062 -15.671875 C 13.539062 -14.363281 12.453125 -13.238281 11.109375 -13.238281 L 7.144531 -13.238281 L 7.144531 -18.0625 L 11.109375 -18.0625 C 12.453125 -18.0625 13.539062 -17.015625 13.539062 -15.671875 Z M 11.855469 -4.375 L 7.144531 -4.375 L 7.144531 -9.199219 L 11.855469 -9.199219 C 13.238281 -9.199219 14.285156 -8.078125 14.285156 -6.769531 C 14.285156 -5.421875 13.238281 -4.375 11.855469 -4.375 Z M 11.855469 -4.375 "/></g></g></g><g fill="rgb(0%, 0%, 0%)" fill-opacity="1"><g transform="translate(222.982924, 257.234993)"><g><path d="M 12.902344 0.300781 C 19.296875 0.300781 24.421875 -4.863281 24.421875 -11.21875 C 24.421875 -17.578125 19.296875 -22.738281 12.902344 -22.738281 C 6.546875 -22.738281 1.382812 -17.578125 1.382812 -11.21875 C 1.382812 -4.863281 6.546875 0.300781 12.902344 0.300781 Z M 12.902344 -4.527344 C 9.125 -4.527344 6.246094 -7.441406 6.246094 -11.21875 C 6.246094 -14.996094 9.125 -17.914062 12.902344 -17.914062 C 16.71875 -17.914062 19.597656 -14.996094 19.597656 -11.21875 C 19.597656 -7.441406 16.71875 -4.527344 12.902344 -4.527344 Z M 12.902344 -4.527344 "/></g></g></g><g fill="rgb(0%, 0%, 0%)" fill-opacity="1"><g transform="translate(251.187274, 257.234993)"><g><path d="M 12.902344 0.300781 C 19.296875 0.300781 24.421875 -4.863281 24.421875 -11.21875 C 24.421875 -17.578125 19.296875 -22.738281 12.902344 -22.738281 C 6.546875 -22.738281 1.382812 -17.578125 1.382812 -11.21875 C 1.382812 -4.863281 6.546875 0.300781 12.902344 0.300781 Z M 12.902344 -4.527344 C 9.125 -4.527344 6.246094 -7.441406 6.246094 -11.21875 C 6.246094 -14.996094 9.125 -17.914062 12.902344 -17.914062 C 16.71875 -17.914062 19.597656 -14.996094 19.597656 -11.21875 C 19.597656 -7.441406 16.71875 -4.527344 12.902344 -4.527344 Z M 12.902344 -4.527344 "/></g></g></g><g fill="rgb(0%, 0%, 0%)" fill-opacity="1"><g transform="translate(279.391614, 257.234993)"><g><path d="M 16.230469 0 L 22.8125 0 L 12.003906 -12.453125 L 21.691406 -22.441406 L 15.335938 -22.441406 L 8.003906 -14.511719 L 7.144531 -14.511719 L 7.144531 -22.441406 L 2.207031 -22.441406 L 2.207031 0 L 7.144531 0 L 7.144531 -10.246094 L 7.855469 -10.246094 Z M 16.230469 0 "/></g></g></g><g fill="rgb(0%, 0%, 0%)" fill-opacity="1"><g transform="translate(114.559517, 276.717572)"><g><path d="M 5.640625 0.125 C 8.339844 0.125 10.503906 -2.054688 10.503906 -4.738281 C 10.503906 -7.425781 8.339844 -9.605469 5.640625 -9.605469 C 2.953125 -9.605469 0.773438 -7.425781 0.773438 -4.738281 C 0.773438 -2.054688 2.953125 0.125 5.640625 0.125 Z M 5.640625 -0.882812 C 3.507812 -0.882812 1.785156 -2.589844 1.785156 -4.738281 C 1.785156 -6.886719 3.507812 -8.59375 5.640625 -8.59375 C 7.789062 -8.59375 9.492188 -6.886719 9.492188 -4.738281 C 9.492188 -2.589844 7.789062 -0.882812 5.640625 -0.882812 Z M 5.640625 -0.882812 "/></g></g></g><g fill="rgb(0%, 0%, 0%)" fill-opacity="1"><g transform="translate(126.847363, 276.717572)"><g><path d="M 7.960938 -9.476562 L 7.960938 -1.691406 L 2.101562 -9.476562 L 1.152344 -9.476562 L 1.152344 0 L 2.164062 0 L 2.164062 -7.789062 L 8.007812 0 L 8.957031 0 L 8.957031 -9.476562 Z M 7.960938 -9.476562 "/></g></g></g><g fill="rgb(0%, 0%, 0%)" fill-opacity="1"><g transform="translate(137.951052, 276.717572)"><g><path d="M 2.164062 -1.011719 L 2.164062 -9.476562 L 1.152344 -9.476562 L 1.152344 0 L 5.6875 0 L 5.6875 -1.011719 Z M 2.164062 -1.011719 "/></g></g></g><g fill="rgb(0%, 0%, 0%)" fill-opacity="1"><g transform="translate(144.776007, 276.717572)"><g><path d="M 1.230469 0 L 2.242188 0 L 2.242188 -9.476562 L 1.230469 -9.476562 Z M 1.230469 0 "/></g></g></g><g fill="rgb(0%, 0%, 0%)" fill-opacity="1"><g transform="translate(149.232659, 276.717572)"><g><path d="M 7.960938 -9.476562 L 7.960938 -1.691406 L 2.101562 -9.476562 L 1.152344 -9.476562 L 1.152344 0 L 2.164062 0 L 2.164062 -7.789062 L 8.007812 0 L 8.957031 0 L 8.957031 -9.476562 Z M 7.960938 -9.476562 "/></g></g></g><g fill="rgb(0%, 0%, 0%)" fill-opacity="1"><g transform="translate(160.336348, 276.717572)"><g><path d="M 6.414062 -8.5 L 6.414062 -9.476562 L 1.230469 -9.476562 L 1.230469 0 L 6.414062 0 L 6.414062 -0.980469 L 2.242188 -0.980469 L 2.242188 -4.25 L 5.875 -4.25 L 5.875 -5.230469 L 2.242188 -5.230469 L 2.242188 -8.5 Z M 6.414062 -8.5 "/></g></g></g><g fill="rgb(0%, 0%, 0%)" fill-opacity="1"><g transform="translate(168.692799, 276.717572)"><g/></g></g><g fill="rgb(0%, 0%, 0%)" fill-opacity="1"><g transform="translate(173.496801, 276.717572)"><g><path d="M 5.828125 -4.800781 C 6.667969 -5.179688 7.21875 -5.941406 7.21875 -6.949219 C 7.21875 -8.433594 6.050781 -9.476562 4.597656 -9.476562 L 1.152344 -9.476562 L 1.152344 0 L 4.929688 0 C 6.367188 0 7.519531 -1.027344 7.519531 -2.496094 C 7.519531 -3.648438 6.824219 -4.46875 5.828125 -4.800781 Z M 6.207031 -6.871094 C 6.207031 -5.941406 5.433594 -5.230469 4.484375 -5.230469 L 2.148438 -5.230469 L 2.148438 -8.46875 L 4.484375 -8.46875 C 5.433594 -8.46875 6.207031 -7.804688 6.207031 -6.871094 Z M 4.800781 -1.011719 L 2.148438 -1.011719 L 2.148438 -4.25 L 4.800781 -4.25 C 5.734375 -4.25 6.507812 -3.539062 6.507812 -2.605469 C 6.507812 -1.675781 5.734375 -1.011719 4.800781 -1.011719 Z M 4.800781 -1.011719 "/></g></g></g><g fill="rgb(0%, 0%, 0%)" fill-opacity="1"><g transform="translate(182.753217, 276.717572)"><g><path d="M 5.640625 0.125 C 8.339844 0.125 10.503906 -2.054688 10.503906 -4.738281 C 10.503906 -7.425781 8.339844 -9.605469 5.640625 -9.605469 C 2.953125 -9.605469 0.773438 -7.425781 0.773438 -4.738281 C 0.773438 -2.054688 2.953125 0.125 5.640625 0.125 Z M 5.640625 -0.882812 C 3.507812 -0.882812 1.785156 -2.589844 1.785156 -4.738281 C 1.785156 -6.886719 3.507812 -8.59375 5.640625 -8.59375 C 7.789062 -8.59375 9.492188 -6.886719 9.492188 -4.738281 C 9.492188 -2.589844 7.789062 -0.882812 5.640625 -0.882812 Z M 5.640625 -0.882812 "/></g></g></g><g fill="rgb(0%, 0%, 0%)" fill-opacity="1"><g transform="translate(195.041063, 276.717572)"><g><path d="M 5.640625 0.125 C 8.339844 0.125 10.503906 -2.054688 10.503906 -4.738281 C 10.503906 -7.425781 8.339844 -9.605469 5.640625 -9.605469 C 2.953125 -9.605469 0.773438 -7.425781 0.773438 -4.738281 C 0.773438 -2.054688 2.953125 0.125 5.640625 0.125 Z M 5.640625 -0.882812 C 3.507812 -0.882812 1.785156 -2.589844 1.785156 -4.738281 C 1.785156 -6.886719 3.507812 -8.59375 5.640625 -8.59375 C 7.789062 -8.59375 9.492188 -6.886719 9.492188 -4.738281 C 9.492188 -2.589844 7.789062 -0.882812 5.640625 -0.882812 Z M 5.640625 -0.882812 "/></g></g></g><g fill="rgb(0%, 0%, 0%)" fill-opacity="1"><g transform="translate(207.32891, 276.717572)"><g><path d="M 6.808594 0 L 8.214844 0 L 3.710938 -5.101562 L 8.039062 -9.476562 L 6.632812 -9.476562 L 2.828125 -5.59375 L 2.164062 -5.59375 L 2.164062 -9.476562 L 1.152344 -9.476562 L 1.152344 0 L 2.164062 0 L 2.164062 -4.644531 L 2.84375 -4.644531 Z M 6.808594 0 "/></g></g></g><g fill="rgb(0%, 0%, 0%)" fill-opacity="1"><g transform="translate(216.427437, 276.717572)"><g><path d="M 3.539062 0.125 C 5.148438 0.125 6.460938 -0.835938 6.460938 -2.496094 C 6.460938 -5.71875 1.847656 -4.929688 1.847656 -7.1875 C 1.847656 -8.136719 2.621094 -8.59375 3.507812 -8.59375 C 4.234375 -8.59375 4.832031 -8.292969 5.210938 -7.757812 L 6.003906 -8.417969 C 5.480469 -9.082031 4.566406 -9.605469 3.476562 -9.605469 C 2.023438 -9.605469 0.835938 -8.65625 0.835938 -7.109375 C 0.835938 -4.058594 5.449219 -4.816406 5.449219 -2.464844 C 5.449219 -1.453125 4.613281 -0.882812 3.554688 -0.882812 C 2.480469 -0.882812 1.707031 -1.46875 1.375 -2.339844 L 0.457031 -1.800781 C 0.949219 -0.632812 2.132812 0.125 3.539062 0.125 Z M 3.539062 0.125 "/></g></g></g><g fill="rgb(0%, 0%, 0%)" fill-opacity="1"><g transform="translate(224.341808, 276.717572)"><g><path d="M 6.398438 -9.476562 L 0.140625 -9.476562 L 0.140625 -8.46875 L 2.765625 -8.46875 L 2.765625 0 L 3.773438 0 L 3.773438 -8.46875 L 6.398438 -8.46875 Z M 6.398438 -9.476562 "/></g></g></g><g fill="rgb(0%, 0%, 0%)" fill-opacity="1"><g transform="translate(231.877255, 276.717572)"><g><path d="M 5.640625 0.125 C 8.339844 0.125 10.503906 -2.054688 10.503906 -4.738281 C 10.503906 -7.425781 8.339844 -9.605469 5.640625 -9.605469 C 2.953125 -9.605469 0.773438 -7.425781 0.773438 -4.738281 C 0.773438 -2.054688 2.953125 0.125 5.640625 0.125 Z M 5.640625 -0.882812 C 3.507812 -0.882812 1.785156 -2.589844 1.785156 -4.738281 C 1.785156 -6.886719 3.507812 -8.59375 5.640625 -8.59375 C 7.789062 -8.59375 9.492188 -6.886719 9.492188 -4.738281 C 9.492188 -2.589844 7.789062 -0.882812 5.640625 -0.882812 Z M 5.640625 -0.882812 "/></g></g></g><g fill="rgb(0%, 0%, 0%)" fill-opacity="1"><g transform="translate(244.165101, 276.717572)"><g><path d="M 4.992188 -4.328125 C 6.238281 -4.503906 7.1875 -5.542969 7.1875 -6.824219 C 7.1875 -8.308594 6.003906 -9.476562 4.550781 -9.476562 L 1.152344 -9.476562 L 1.152344 0 L 2.164062 0 L 2.164062 -4.28125 L 3.949219 -4.28125 L 6.632812 0 L 7.789062 0 Z M 2.164062 -5.246094 L 2.164062 -8.46875 L 4.484375 -8.46875 C 5.433594 -8.46875 6.175781 -7.804688 6.175781 -6.855469 C 6.175781 -5.890625 5.449219 -5.246094 4.484375 -5.246094 Z M 2.164062 -5.246094 "/></g></g></g><g fill="rgb(0%, 0%, 0%)" fill-opacity="1"><g transform="translate(253.089949, 276.717572)"><g><path d="M 6.414062 -8.5 L 6.414062 -9.476562 L 1.230469 -9.476562 L 1.230469 0 L 6.414062 0 L 6.414062 -0.980469 L 2.242188 -0.980469 L 2.242188 -4.25 L 5.875 -4.25 L 5.875 -5.230469 L 2.242188 -5.230469 L 2.242188 -8.5 Z M 6.414062 -8.5 "/></g></g></g></svg>