<svg xmlns="http://www.w3.org/2000/svg" xmlns:xlink="http://www.w3.org/1999/xlink" width="500" zoomAndPan="magnify" viewBox="0 0 375 374.999991" height="500" preserveAspectRatio="xMidYMid meet" version="1.0"><defs><clipPath id="id1"><path d="M 56 13.101562 L 319 13.101562 L 319 361.851562 L 56 361.851562 Z M 56 13.101562 " clip-rule="nonzero"/></clipPath><clipPath id="id2"><path d="M 21 156 L 234 156 L 234 375 L 21 375 Z M 21 156 " clip-rule="nonzero"/></clipPath><clipPath id="id3"><path d="M 17.976562 159.324219 L 233.933594 154.925781 L 238.5625 382.128906 L 22.609375 386.527344 Z M 17.976562 159.324219 " clip-rule="nonzero"/></clipPath><clipPath id="id4"><path d="M 233.792969 154.925781 L 17.835938 159.328125 L 22.46875 386.53125 L 238.421875 382.128906 Z M 233.792969 154.925781 " clip-rule="nonzero"/></clipPath></defs><rect x="-37.5" width="450" fill="rgb(100%, 100%, 100%)" y="-37.499999" height="449.999989" fill-opacity="1"/><rect x="-37.5" width="450" fill="rgb(100%, 100%, 100%)" y="-37.499999" height="449.999989" fill-opacity="1"/><rect x="-37.5" width="450" fill="rgb(100%, 100%, 100%)" y="-37.499999" height="449.999989" fill-opacity="1"/><g clip-path="url(#id1)"><path fill="rgb(94.898987%, 62.748718%, 2.749634%)" d="M 56.285156 355.753906 L 56.285156 47.742188 C 56.285156 44.367188 58.363281 39.632812 60.769531 37.167969 L 80.382812 17.578125 C 82.851562 15.109375 87.65625 13.101562 91.101562 13.101562 L 311.9375 13.101562 C 315.378906 13.101562 318.171875 15.890625 318.171875 19.199219 L 318.171875 327.207031 C 318.171875 330.582031 316.09375 335.316406 313.691406 337.78125 L 294.074219 357.375 C 291.605469 359.839844 286.800781 361.851562 283.359375 361.851562 L 62.523438 361.851562 C 59.078125 361.851562 56.285156 359.058594 56.285156 355.753906 Z M 293.230469 44.304688 L 293.230469 340.570312 L 305.703125 328.117188 L 305.703125 25.554688 L 90.0625 25.554688 L 77.589844 38.011719 L 286.996094 38.011719 C 290.4375 38.011719 293.230469 40.800781 293.230469 44.304688 Z M 293.230469 44.304688 " fill-opacity="1" fill-rule="evenodd"/></g><g clip-path="url(#id2)"><g clip-path="url(#id3)"><g clip-path="url(#id4)"><path fill="rgb(100%, 100%, 100%)" d="M 30.964844 246 L 206.753906 159.054688 C 214.03125 155.449219 221.84375 155.621094 227.582031 159.402344 C 232.457031 164.261719 234.214844 171.878906 232.164062 179.738281 L 182.839844 369.683594 C 181.707031 374.007812 179.136719 377.609375 175.390625 380.097656 C 170.15625 383.535156 164.429688 383.667969 160.460938 380.4375 C 159.675781 379.792969 158.953125 379.019531 158.328125 378.121094 L 141.535156 345.1875 C 141.480469 345.054688 141.417969 344.917969 141.351562 344.792969 L 131.472656 325.425781 L 131.472656 325.410156 L 131.457031 325.378906 C 131.449219 325.367188 131.441406 325.359375 131.433594 325.335938 L 131.371094 325.207031 C 131.304688 325.074219 131.195312 324.871094 131.058594 324.609375 L 130.835938 324.164062 L 130.816406 324.1875 C 130.363281 323.378906 129.664062 322.203125 128.671875 320.734375 C 116.730469 335.390625 104.828125 350.089844 92.832031 364.703125 C 84.933594 374.3125 71.917969 376.953125 61.546875 371.21875 C 47.589844 363.507812 43.902344 345.976562 53.902344 333.457031 C 65.703125 318.671875 77.730469 304.050781 89.890625 289.148438 C 88.242188 288.46875 86.933594 288.007812 86.050781 287.726562 L 86.066406 287.710938 L 85.585938 287.578125 C 85.296875 287.496094 85.082031 287.433594 84.933594 287.394531 L 84.796875 287.359375 C 84.773438 287.355469 84.765625 287.347656 84.75 287.347656 L 84.714844 287.339844 L 84.707031 287.339844 L 63.75 281.601562 C 63.609375 281.5625 63.46875 281.527344 63.328125 281.5 L 27.6875 271.742188 C 26.6875 271.308594 25.777344 270.757812 24.988281 270.121094 C 21.023438 266.882812 19.992188 261.246094 22.289062 255.417969 C 23.957031 251.25 26.953125 247.992188 30.964844 246 " fill-opacity="1" fill-rule="nonzero"/></g></g></g></svg>